{"title":"My Girlfriends Boyfriend 2010 720p BRRip.x264.Feel-free","uid":6137732,"size":1718862930,"categoryP":"video","categoryS":"hd___movies","magnet":"?xt=urn:btih:ccd437bf8b9faa5faaa0a3311741a39e7e88b989&amp;dn=My+Girlfriends+Boyfriend+2010+720p+BRRip.x264.Feel-free&amp;tr=udp%3A%2F%2Ftracker.openbittorrent.com%3A80&amp;tr=udp%3A%2F%2Fopen.demonii.com%3A1337&amp;tr=udp%3A%2F%2Ftracker.coppersurfer.tk%3A6969&amp;tr=udp%3A%2F%2Fexodus.desync.com%3A6969","seeders":0,"leechers":1,"uploader":"neon","files":-1,"time":1296378087,"description":"Genre:Comedy | Romance\nLanguage:English\n &lt;a href=&quot; http://www.imdb.com/title/tt1447793/&quot; rel=&quot;nofollow&quot; target=&quot;_NEW&quot;&gt; http://www.imdb.com/title/tt1447793/&lt;/a&gt;\nSource:BluRay.x264-SWAGGERHD\nSubtitles:Romana\n\n\nFormat : MPEG-4\nFormat profile : Base Media\nCodec ID : isom\nFile size : 1.59 GiB\nDuration : 1h 24mn\nOverall bit rate : 2 706 Kbps\nMovie name : My.Girlfriends.Boyfriend.2010.720p.BRRip.x264.Feel-free\n\n\nVideo\nFormat settings, CABAC : Yes\nFormat settings, ReFrames : 4 frames\nFormat settings, GOP : M=1, N=16\nCodec ID : avc1\nCodec ID/Info : Advanced Video Coding\nDuration : 1h 24mn\nBit rate mode : Variable\nBit rate : 2 300 Kbps\nWidth : 1 280 pixels\nHeight : 720 pixels\nDisplay aspect ratio : 16:9\nFrame rate mode : Constant\nFrame rate : 23.976 fps\nColor space : YUV\nChroma subsampling : 4:2:0\nBit depth : 8 bits\nScan type : Progressive\nBits/(Pixel*Frame) : 0.104\nStream size : 1.36 GiB (86%)\nWriting library : x264\n\nAudio\nID : 2\nFormat : AAC\nFormat/Info : Advanced Audio Codec\nFormat version : Version 4\nFormat profile : LC\nCodec ID : 40\nDuration : 1h 24mn\nBit rate mode : Variable\nBit rate : 384 Kbps\nChannel(s) : 6 channels\nChannel positions : Front: L C R, Side: L R, LFE\nSampling rate : 48.0 KHz\nStream size : 232 MiB (14%)\n\n\n\nPlot:\nesse meets Ethan, someone she could finally fall in love with, but then she meets Troy, and now she has a dilemma\n &lt;a href=&quot;\nhttp://rapidhdd.com/images/202191vlcsnap-00001.png&quot; rel=&quot;nofollow&quot; target=&quot;_NEW&quot;&gt;\nhttp://rapidhdd.com/images/202191vlcsnap-00001.png&lt;/a&gt; &lt;a href=&quot;\nhttp://www.rapidhdd.com/images/209924vlcsnap-00003.png&quot; rel=&quot;nofollow&quot; target=&quot;_NEW&quot;&gt;\nhttp://www.rapidhdd.com/images/209924vlcsnap-00003.png&lt;/a&gt; &lt;a href=&quot;\nhttp://www.rapidhdd.com/images/153883vlcsnap-00002.png&quot; rel=&quot;nofollow&quot; target=&quot;_NEW&quot;&gt;\nhttp://www.rapidhdd.com/images/153883vlcsnap-00002.png&lt;/a&gt; &lt;a href=&quot;\nhttp://www.rapidhdd.com/images/446300vlcsnap-00004.png&quot; rel=&quot;nofollow&quot; target=&quot;_NEW&quot;&gt;\nhttp://www.rapidhdd.com/images/446300vlcsnap-00004.png&lt;/a&gt; &lt;a href=&quot;\nhttp://www.rapidhdd.com/images/872277vlcsnap-00006.png&quot; rel=&quot;nofollow&quot; target=&quot;_NEW&quot;&gt;\nhttp://www.rapidhdd.com/images/872277vlcsnap-00006.png&lt;/a&gt;","torrent":{"xt":"urn:btih:ccd437bf8b9faa5faaa0a3311741a39e7e88b989","amp;dn":"My+Girlfriends+Boyfriend+2010+720p+BRRip.x264.Feel-free","amp;tr":["udp%3A%2F%2Ftracker.openbittorrent.com%3A80","udp%3A%2F%2Fopen.demonii.com%3A1337","udp%3A%2F%2Ftracker.coppersurfer.tk%3A6969","udp%3A%2F%2Fexodus.desync.com%3A6969"],"infoHash":"ccd437bf8b9faa5faaa0a3311741a39e7e88b989","infoHashBuffer":{"type":"Buffer","data":[204,212,55,191,139,159,170,95,170,160,163,49,23,65,163,158,126,136,185,137]},"announce":[],"urlList":[]}}